<?xml version="1.0" encoding="utf-8"?>
<!-- Generator: Adobe Illustrator 24.0.0, SVG Export Plug-In . SVG Version: 6.00 Build 0)  -->
<svg version="1.1" id="Layer_1" xmlns="http://www.w3.org/2000/svg" xmlns:xlink="http://www.w3.org/1999/xlink" x="0px" y="0px"
	 viewBox="0 0 100 100" style="enable-background:new 0 0 100 100;" xml:space="preserve">
<style type="text/css">
	.st0{fill:#FFFFFF;}
</style>
<g>
	<path class="st0" d="M60,35.5c-0.3,1.1-0.5,2-0.8,3c-9.1,0-18.3,0-27.6,0c0.3,0.4,0.5,0.6,0.8,0.8c3.5,3.4,7,6.8,10.4,10.1
		c1.7,1.7,3.5,3.3,5.2,5c0.4,0.4,0.8,0.8,1.3,1.1c3.9-3.9,7.8-7.7,11.7-11.5c0.8,0.7,1.5,1.4,2.3,2c-2.6,2.5-5.1,5-7.8,7.7
		c4.4,2.9,8.6,5.8,13.1,8.7c0.1-1.1,0-2.1,0.1-3.2c0-1.1,0-2,0-3.1c0-1,0-2,0-3c0-1.1,0-2,0-3.1c0-1.1,0-2,0-3c1-0.4,2-0.7,3-1.1
		c0,0.2,0.1,0.5,0.1,0.8c0,2.2-0.1,4.4-0.1,6.5c0,3.2,0.1,6.5,0.1,9.7c0,0.5,0,1.1-0.2,1.6c-0.5,2-2.3,3.4-4.2,3.5
		c-0.2,0-0.5,0-0.7,0c-11.6,0-23.3,0-34.9,0c-0.7,0-1.4-0.1-2.1-0.4c-1.9-0.8-2.9-2.2-2.9-4.2c-0.1-4.2,0-8.3,0-12.5
		c0-3.7,0-7.3,0-11c0-1.8,0.8-3.2,2.4-4.1c0.8-0.5,1.7-0.6,2.6-0.6c4.3,0,8.6,0,12.9,0c4.9,0,9.7,0,14.6,0
		C59.4,35.5,59.7,35.5,60,35.5z M31.5,64.9c0,0.1,0,0.1,0.1,0.2c11.7,0,23.5,0,35.2,0c0-0.1,0.1-0.1,0.1-0.2c-4.5-3-9-6-13.5-9
		c-0.2,0.2-0.5,0.5-0.7,0.7c-0.5,0.5-1,1-1.5,1.4c-1.3,1.1-2.5,1.1-3.8,0.1c-0.6-0.5-1.1-1-1.7-1.5c-0.2-0.2-0.5-0.5-0.7-0.6
		C40.4,58.9,35.9,61.9,31.5,64.9z M29.7,40.9c0,7.2,0,14.3,0,21.5c4.4-3,8.8-5.8,13.1-8.8C38.4,49.4,34.1,45.2,29.7,40.9z"/>
	<path class="st0" d="M67.4,32.8c3.4,0,6.2,2.7,6.2,6.1c0,3.5-2.8,6.2-6.2,6.2s-6.2-2.8-6.2-6.2S64,32.8,67.4,32.8z M69.1,34.9
		c-0.5,0.2-1.1-0.2-1.3,0.3c-0.5,0.8-1.3,1.4-2.1,1.8c0,0.5,0,0.8,0,1.4c0.7-0.4,1.3-0.7,2-1.1c0,1.9,0,3.7,0,5.6c0.5,0,1,0,1.5,0
		C69.1,40.3,69.1,37.7,69.1,34.9z"/>
</g>
</svg>
