<svg id="Layer_1" data-name="Layer 1" xmlns="http://www.w3.org/2000/svg" viewBox="0 0 1.32 1.76"><defs><style>.cls-1{fill:#fff;}.cls-2{fill:none;}</style></defs><path class="cls-1" d="M.66,1A.26.26,0,0,0,.92.69.25.25,0,0,0,.9.57H.42A.26.26,0,0,0,.54.93.25.25,0,0,0,.66,1Zm.07.14V1s0,0,0,0H.6a0,0,0,0,0,0,0h0v.08a0,0,0,0,0,0,0h0v0l.06.12.06-.12v0h0l0,0h0ZM.43.52a0,0,0,0,0,0,0H.87a0,0,0,0,0,0,0h0V.45a.19.19,0,0,0,0-.13,0,0,0,0,0,0,0,.73.73,0,0,0-.25,0,.69.69,0,0,0-.25,0,0,0,0,0,0,0,0,.17.17,0,0,0,0,.12Zm.6.56A.4.4,0,0,0,.83,1L.68,1.3h0L.49,1a.31.31,0,0,0-.29.3v.2h.91v-.2A.26.26,0,0,0,1,1.08Zm0,.27a0,0,0,0,1,0,0H.83a0,0,0,0,1,0,0h0V1.24a0,0,0,0,1,0,0H1a0,0,0,0,1,0,0H1Zm-.15,0H1V1.26H.85Z"/><rect class="cls-2" width="1.32" height="1.76"/></svg>