<svg width="70" height="70" viewBox="0 0 70 70" fill="none" xmlns="http://www.w3.org/2000/svg">
<path fill-rule="evenodd" clip-rule="evenodd" d="M18.334 34.9997C18.334 25.8097 25.8107 18.333 35.0007 18.333C44.1907 18.333 51.6673 25.8097 51.6673 34.9997C51.6673 35.3085 51.6458 35.6117 51.6243 35.9158C51.6197 35.9809 51.6151 36.0461 51.6107 36.1113C50.5873 35.6297 49.4857 35.2963 48.3273 35.1313V35.123C47.7857 35.043 47.2323 34.9997 46.6673 34.9997C40.224 34.9997 35.0007 40.223 35.0007 46.6663C35.0007 47.2313 35.044 47.7847 35.1223 48.3263H35.1307C35.2973 49.4847 35.6307 50.5863 36.1107 51.6097C36.0466 51.614 35.9826 51.6186 35.9186 51.6231C35.6146 51.6447 35.3104 51.6663 35.0007 51.6663C25.8107 51.6663 18.334 44.1897 18.334 34.9997ZM30.6907 41.6663L36.179 36.178C36.4923 35.8647 36.6673 35.4413 36.6673 34.9997V26.6663C36.6673 25.7463 35.9207 24.9997 35.0007 24.9997C34.0807 24.9997 33.334 25.7463 33.334 26.6663V34.3097L28.334 39.3097C27.684 39.9597 27.684 41.0163 28.334 41.6663C28.984 42.3163 30.0407 42.3163 30.6907 41.6663ZM46.6673 38.333C42.084 38.333 38.334 42.083 38.334 46.6663C38.334 51.2497 42.084 54.9997 46.6673 54.9997C51.2507 54.9997 55.0007 51.2497 55.0007 46.6663C55.0007 42.083 51.2507 38.333 46.6673 38.333ZM47.6611 43.269C48.8892 43.4795 49.8568 44.0545 50.564 44.9942C51.2768 45.9338 51.6441 47.1122 51.666 48.5293V50.0003H49.6677V48.5832C49.6622 47.5717 49.4813 46.7604 49.1249 46.1494C48.774 45.5333 48.2861 45.1174 47.6611 44.9017V50.0003H45.6627V44.9094C45.0432 45.1251 44.5553 45.5461 44.1989 46.1725C43.8426 46.7938 43.6644 47.6153 43.6644 48.6371V50.0003H41.666V48.5678C41.6825 47.1507 42.047 45.9697 42.7598 45.025C43.4725 44.0802 44.4401 43.4975 45.6627 43.2767V41.667H47.6611V43.269Z" fill="white"/>
</svg>
