<svg width="70" height="70" viewBox="0 0 70 70" fill="none" xmlns="http://www.w3.org/2000/svg">
<path fill-rule="evenodd" clip-rule="evenodd" d="M24.3205 49.4688L25.0866 47.6214C25.6734 47.8647 26.3184 48 27 48H29V50H27C26.0509 50 25.1458 49.8111 24.3205 49.4688ZM41 50V48H43C43.6816 48 44.3266 47.8647 44.9134 47.6214L45.6795 49.4688C44.8542 49.8111 43.9491 50 43 50H41ZM50 29H48V27C48 26.3184 47.8647 25.6734 47.6214 25.0866L49.4688 24.3205C49.8111 25.1458 50 26.0509 50 27V29ZM29 20H27C26.0509 20 25.1458 20.1889 24.3205 20.5312L25.0866 22.3786C25.6734 22.1353 26.3184 22 27 22H29V20ZM20 41H22V43C22 43.6816 22.1353 44.3266 22.3786 44.9134L20.5312 45.6795C20.1889 44.8542 20 43.9491 20 43V41ZM20 37H22V33H20V37ZM20 29H22V27C22 26.3184 22.1353 25.6734 22.3786 25.0866L20.5312 24.3205C20.1889 25.1458 20 26.0509 20 27V29ZM33 20V22H37V20H33ZM41 20V22H43C43.6816 22 44.3266 22.1353 44.9134 22.3786L45.6795 20.5312C44.8542 20.1889 43.9491 20 43 20H41ZM50 33H48V37H50V33ZM50 41H48V43C48 43.6816 47.8647 44.3266 47.6214 44.9134L49.4688 45.6795C49.8111 44.8542 50 43.9491 50 43V41ZM37 50V48H33V50H37Z" fill="white"/>
<path fill-rule="evenodd" clip-rule="evenodd" d="M40.7071 29.2929C41.0976 29.6834 41.0976 30.3166 40.7071 30.7071L30.7071 40.7071C30.3166 41.0976 29.6834 41.0976 29.2929 40.7071C28.9024 40.3166 28.9024 39.6834 29.2929 39.2929L39.2929 29.2929C39.6834 28.9024 40.3166 28.9024 40.7071 29.2929Z" fill="white"/>
<path d="M34 30C34 31.1046 33.1046 32 32 32C30.8954 32 30 31.1046 30 30C30 28.8954 30.8954 28 32 28C33.1046 28 34 28.8954 34 30Z" fill="white"/>
<path d="M40 40C40 41.1046 39.1046 42 38 42C36.8954 42 36 41.1046 36 40C36 38.8954 36.8954 38 38 38C39.1046 38 40 38.8954 40 40Z" fill="white"/>
</svg>
