<svg id="Ñëîé_1" data-name="Ñëîé 1" xmlns="http://www.w3.org/2000/svg" viewBox="0 0 433.25 472.97"><defs><style>.cls-1{fill:#ffc82e;}.cls-2{fill:none;stroke:#231f20;stroke-linecap:round;stroke-linejoin:round;stroke-width:9.61px;}</style></defs><title>Envelope-4</title><polygon class="cls-1" points="246.67 25.46 215.18 1.4 184.48 25.46 246.67 25.46"/><path class="cls-1" d="M655.34,384.72V477.9L539.57,571.44l-30.53-24a12,12,0,0,0-17,0l-31.35,24.37h-6l-110-94.69V385.5l-56.49,44.26V723l15.07,8.7H701.18l10.64-8.41V427.88Z" transform="translate(-283.38 -263.51)"/><path class="cls-2" d="M289.86,702.52,486.48,550.67a19.7,19.7,0,0,1,27,0L710.13,702.52" transform="translate(-283.38 -263.51)"/><line class="cls-2" x1="170.9" y1="309.65" x2="5.03" y2="168.89"/><line class="cls-2" x1="428.21" y1="168.9" x2="260.58" y2="310.67"/><path class="cls-2" d="M655.34,382.94l50.87,39.19a17.92,17.92,0,0,1,5.61,13V713.35c0,10.12-8.56,18.33-19.12,18.33H307.3c-10.56,0-19.12-8.21-19.12-18.33V435.09a17.72,17.72,0,0,1,4.13-11.37l52.36-40.46" transform="translate(-283.38 -263.51)"/><path class="cls-2" d="M466.91,288.81l19.57-15.12a19.7,19.7,0,0,1,27,0l17.65,13.6" transform="translate(-283.38 -263.51)"/><path class="cls-2" d="M344.67,290.29V480.15l109.62,93,1.77,1,30.43-23.51a19.7,19.7,0,0,1,27,0l27.7,21.4,2.73,2.11,111.39-94.49V290.29Z" transform="translate(-283.38 -263.51)"/><path class="cls-2" d="M418.76,389.11c0-11.49,9.72-20.81,21.71-20.81s21.71,9.32,21.71,20.81" transform="translate(-283.38 -263.51)"/><path class="cls-2" d="M535.24,389.11c0-11.49,9.72-20.81,21.71-20.81s21.71,9.32,21.71,20.81" transform="translate(-283.38 -263.51)"/><path class="cls-2" d="M418.76,389.11c0-11.49,9.72-20.81,21.71-20.81s21.71,9.32,21.71,20.81" transform="translate(-283.38 -263.51)"/><path class="cls-2" d="M535.24,389.11c0-11.49,9.72-20.81,21.71-20.81s21.71,9.32,21.71,20.81" transform="translate(-283.38 -263.51)"/><path class="cls-2" d="M534.49,451.82c0,18.95-16,34.31-35.78,34.31s-35.78-15.36-35.78-34.31" transform="translate(-283.38 -263.51)"/></svg>