<svg width="70" height="70" viewBox="0 0 70 70" fill="none" xmlns="http://www.w3.org/2000/svg">
<path d="M47.9255 33.0854H47.766V31.4897C47.766 29.6386 46.3936 28.1067 44.5745 27.8514V25.9046C44.5745 23.8939 42.9149 22.2344 40.9043 22.2344H23.8936C21.7872 22.2344 20.0319 23.9259 20 26.0642V44.0961C20 46.1067 21.6596 47.7663 23.6702 47.7663H44.0957C46.1064 47.7663 47.766 46.1067 47.766 44.0961V42.3408H47.9255C49.0745 42.3408 50 41.4152 50 40.2663V35.1599C50 34.011 49.0745 33.0854 47.9255 33.0854ZM22.234 26.128C22.234 25.2025 23 24.4684 23.8936 24.4684H40.8723C41.6702 24.4684 42.3085 25.1067 42.3085 25.9046V27.8195H23.8936C23 27.8195 22.234 27.0535 22.234 26.128ZM47.766 40.1067H42.5C41.1915 40.1067 40.1064 39.0216 40.1064 37.7131C40.1064 36.4046 41.1915 35.3195 42.5 35.3195H47.766V40.1067Z" fill="white"/>
<path d="M43.1387 39.3087C44.02 39.3087 44.7345 38.5942 44.7345 37.7129C44.7345 36.8316 44.02 36.1172 43.1387 36.1172C42.2574 36.1172 41.543 36.8316 41.543 37.7129C41.543 38.5942 42.2574 39.3087 43.1387 39.3087Z" fill="white"/>
</svg>
